<svg width="671" height="663" fill="none" xmlns="http://www.w3.org/2000/svg"><path d="M352.5 1.25c175.227 0 317.25 140.262 317.25 313.25S527.727 627.75 352.5 627.75 35.25 487.488 35.25 314.5 177.273 1.25 352.5 1.25Z" fill="#fff" stroke="#EFECEB" stroke-width="2.5"/><path d="M351.5 51.054c147.719 0 267.446 118.242 267.446 264.074S499.219 579.202 351.5 579.202c-147.719 0-267.446-118.242-267.446-264.074S203.78 51.054 351.5 51.054Z" fill="#fff" stroke="#EFECEB" stroke-width="2.108"/><path d="M345 98.863c121.036 0 219.137 96.885 219.137 216.374 0 119.49-98.101 216.373-219.137 216.373s-219.137-96.883-219.137-216.373c0-119.489 98.101-216.374 219.137-216.374Z" fill="#fff" stroke="#EFECEB" stroke-width="1.727"/><circle cx="624" cy="25" r="25" fill="#EBD96B"/><ellipse cx="45" cy="27" rx="11" ry="12" fill="#ECE8E7"/><ellipse cx="45" cy="27" rx="11" ry="12" fill="#89807A"/><circle cx="17" cy="646" r="17" fill="#EBD96B"/><circle cx="662.5" cy="558.5" r="8.5" fill="#89807A"/></svg>