<svg width="671" height="663" viewBox="0 0 671 663" fill="none" xmlns="http://www.w3.org/2000/svg">
<path d="M352.5 1.25C527.727 1.25 669.75 141.512 669.75 314.5C669.75 487.488 527.727 627.75 352.5 627.75C177.273 627.75 35.25 487.488 35.25 314.5C35.25 141.512 177.273 1.25 352.5 1.25Z" fill="white" stroke="#EFECEB" stroke-width="2.5"/>
<path d="M351.5 51.0537C499.219 51.0537 618.946 169.296 618.946 315.128C618.946 460.96 499.219 579.202 351.5 579.202C203.781 579.202 84.0537 460.96 84.0537 315.128C84.0537 169.296 203.781 51.0537 351.5 51.0537Z" fill="white" stroke="#EFECEB" stroke-width="2.10754"/>
<path d="M345 98.8633C466.036 98.8633 564.137 195.748 564.137 315.237C564.137 434.727 466.036 531.61 345 531.61C223.964 531.61 125.863 434.727 125.863 315.237C125.863 195.748 223.964 98.8633 345 98.8633Z" fill="white" stroke="#EFECEB" stroke-width="1.72684"/>
<circle cx="624" cy="25" r="25" fill="#EBD96B"/>
<ellipse cx="45" cy="27" rx="11" ry="12" fill="#ECE8E7"/>
<ellipse cx="45" cy="27" rx="11" ry="12" fill="#89807A"/>
<circle cx="17" cy="646" r="17" fill="#EBD96B"/>
<circle cx="662.5" cy="558.5" r="8.5" fill="#89807A"/>
</svg>
